Roboto-Delta-STLI412.ufo
<glyph name="b" format="2">
	<unicode hex="0062"/>
	<advance width="1170"/>
	<outline>
		<contour>
			<point x="-6.7411768958" y="0" type="line"/>
			<point x="302.7411768958" y="1456" type="line"/>
			<point x="488.7411768958" y="1456" type="line"/>
			<point x="208.379072053" y="137" type="line"/>
			<point x="198.379072053" y="137" type="line"/>
			<point x="161.2588231042" y="0" type="line"/>
		</contour>
		<contour>
			<point x="493.3162892447" y="132" type="qcurve" smooth="yes"/>
			<point x="644.3162892447" y="132"/>
			<point x="781.2822395065" y="193"/>
			<point x="792.547737275" y="246" type="qcurve" smooth="yes"/>
			<point x="911.5794118103" y="806" type="line" smooth="yes"/>
			<point x="923.2700227021" y="861"/>
			<point x="803.8108598406" y="920"/>
			<point x="645.8108598406" y="920" type="qcurve" smooth="yes"/>
			<point x="508.8108598406" y="920"/>
			<point x="295.2511312334" y="748"/>
			<point x="252.9523754611" y="549" type="qcurve" smooth="yes"/>
			<point x="247.0007917343" y="521" type="line" smooth="yes"/>
			<point x="210.2285065654" y="348"/>
			<point x="332.3162892447" y="132"/>
		</contour>
		<contour>
			<point x="495.0076918708" y="-20" type="qcurve" smooth="yes"/>
			<point x="293.0076918708" y="-20"/>
			<point x="125.5863119468" y="265"/>
			<point x="179.7882351726" y="520" type="qcurve" smooth="yes"/>
			<point x="187.0151582694" y="554" type="line" smooth="yes"/>
			<point x="233.7776018368" y="774"/>
			<point x="509.1194572145" y="1072"/>
			<point x="718.1194572145" y="1072" type="qcurve" smooth="yes"/>
			<point x="918.1194572145" y="1072"/>
			<point x="1094.3524887135" y="772"/>
			<point x="1045.4644795294" y="542" type="qcurve" smooth="yes"/>
			<point x="1038.6626695559" y="510" type="line" smooth="yes"/>
			<point x="989.7746603718" y="280"/>
			<point x="686.0076918708" y="-20"/>
		</contour>
	</outline>
	<anchor name="bottom" x="430.2588231042" y="0"/>
	<anchor name="top" x="739.7411768958" y="1456"/>
</glyph>
<glyph name="c" format="2">
	<unicode hex="0063"/>
	<advance width="1068"/>
	<outline>
		<contour>
			<point x="38.6626695559" y="510" type="qcurve" smooth="yes"/>
			<point x="45.4644795294" y="542" type="line" smooth="yes"/>
			<point x="96.0529412068" y="780"/>
			<point x="419.2450228312" y="1082"/>
			<point x="646.2450228312" y="1082" type="qcurve" smooth="yes"/>
			<point x="856.2450228312" y="1082"/>
			<point x="1025.9946833321" y="855"/>
			<point x="996.2367646983" y="715" type="qcurve" smooth="yes"/>
			<point x="995.1739818899" y="710" type="line"/>
			<point x="815.1739818899" y="710" type="line"/>
			<point x="835.5794118103" y="806" type="line" smooth="yes"/>
			<point x="858.7480770323" y="915"/>
			<point x="743.9364254573" y="930"/>
			<point x="609.9364254573" y="930" type="qcurve" smooth="yes"/>
			<point x="460.9364254573" y="930"/>
			<point x="308.1588236205" y="884"/>
			<point x="291.5794118103" y="806" type="qcurve" smooth="yes"/>
			<point x="172.547737275" y="246" type="line" smooth="yes"/>
			<point x="155.9683254648" y="168"/>
			<point x="283.190723628" y="122"/>
			<point x="437.190723628" y="122" type="qcurve" smooth="yes"/>
			<point x="586.190723628" y="122"/>
			<point x="697.2050901631" y="155"/>
			<point x="716.547737275" y="246" type="qcurve" smooth="yes"/>
			<point x="736.9531671954" y="342" type="line"/>
			<point x="916.9531671954" y="342" type="line"/>
			<point x="915.890384387" y="337" type="line" smooth="yes"/>
			<point x="886.1324657532" y="197"/>
			<point x="619.8821262541" y="-30"/>
			<point x="409.8821262541" y="-30" type="qcurve" smooth="yes"/>
			<point x="182.8821262541" y="-30"/>
			<point x="-11.9257921215" y="272"/>
		</contour>
	</outline>
	<anchor name="bottom" x="416.2588231042" y="0"/>
	<anchor name="top" x="639.8683259811" y="1052"/>
</glyph>
<glyph name="e" format="2">
	<unicode hex="0065"/>
	<advance width="1088"/>
	<outline>
		<contour>
			<point x="38.6626695559" y="510" type="qcurve" smooth="yes"/>
			<point x="45.4644795294" y="542" type="line" smooth="yes"/>
			<point x="96.0529412068" y="780"/>
			<point x="421.2450228312" y="1082"/>
			<point x="636.2450228312" y="1082" type="qcurve" smooth="yes"/>
			<point x="851.2450228312" y="1082"/>
			<point x="1023.3040724402" y="800"/>
			<point x="972.2904976394" y="560" type="qcurve" smooth="yes"/>
			<point x="956.1361989525" y="484" type="line"/>
			<point x="128.1361989525" y="484" type="line"/>
			<point x="159.5945700797" y="632" type="line"/>
			<point x="800.5945700797" y="632" type="line"/>
			<point x="837.5794118103" y="806" type="line" smooth="yes"/>
			<point x="855.2216064289" y="889"/>
			<point x="727.9364254573" y="930"/>
			<point x="612.9364254573" y="930" type="qcurve" smooth="yes"/>
			<point x="456.9364254573" y="930"/>
			<point x="307.3085973738" y="880"/>
			<point x="291.5794118103" y="806" type="qcurve" smooth="yes"/>
			<point x="172.547737275" y="246" type="line" smooth="yes"/>
			<point x="164.4705879316" y="208"/>
			<point x="290.190723628" y="122"/>
			<point x="475.190723628" y="122" type="qcurve" smooth="yes"/>
			<point x="580.190723628" y="122"/>
			<point x="745.8329182466" y="205"/>
			<point x="817.2239816318" y="268" type="qcurve"/>
			<point x="882.4562213965" y="175" type="line"/>
			<point x="816.5144792712" y="100"/>
			<point x="579.8821262541" y="-30"/>
			<point x="429.8821262541" y="-30" type="qcurve" smooth="yes"/>
			<point x="184.8821262541" y="-30"/>
			<point x="-11.9257921215" y="272"/>
		</contour>
	</outline>
	<anchor name="bottom" x="435.2588231042" y="0"/>
	<anchor name="ogonek" x="616.2588231042" y="0"/>
	<anchor name="top" x="628.8683259811" y="1052"/>
</glyph>
<glyph name="g" format="2">
	<unicode hex="0067"/>
	<advance width="1170"/>
	<outline>
		<contour>
			<point x="302.5841622161" y="-436" type="qcurve" smooth="yes"/>
			<point x="172.5841622161" y="-436"/>
			<point x="-29.1359734803" y="-350"/>
			<point x="-91.1072404101" y="-284" type="qcurve"/>
			<point x="37.4381216621" y="-145" type="line"/>
			<point x="53.1824654951" y="-245"/>
			<point x="216.0183252066" y="-274"/>
			<point x="328.0183252066" y="-274" type="qcurve" smooth="yes"/>
			<point x="475.0183252066" y="-274"/>
			<point x="629.1824654951" y="-245"/>
			<point x="685.5099543376" y="20" type="qcurve" smooth="yes"/>
			<point x="875.7480770323" y="915" type="line"/>
			<point x="885.7480770323" y="915" type="line"/>
			<point x="922.8683259811" y="1052" type="line"/>
			<point x="1090.8683259811" y="1052" type="line"/>
			<point x="871.5099543376" y="20" type="line" smooth="yes"/>
			<point x="824.7475107702" y="-200"/>
			<point x="512.5841622161" y="-436"/>
		</contour>
		<contour>
			<point x="417.3162892447" y="132" type="qcurve" smooth="yes"/>
			<point x="585.3162892447" y="132"/>
			<point x="797.165723757" y="343"/>
			<point x="831.1747736242" y="503" type="qcurve" smooth="yes"/>
			<point x="837.126357351" y="531" type="line" smooth="yes"/>
			<point x="873.8986425199" y="704"/>
			<point x="743.8108598406" y="920"/>
			<point x="583.8108598406" y="920" type="qcurve" smooth="yes"/>
			<point x="459.8108598406" y="920"/>
			<point x="307.0960408122" y="879"/>
			<point x="291.5794118103" y="806" type="qcurve" smooth="yes"/>
			<point x="177.6490947551" y="270" type="line" smooth="yes"/>
			<point x="160.2194566982" y="188"/>
			<point x="279.3162892447" y="132"/>
		</contour>
		<contour>
			<point x="366.0076918708" y="-20" type="qcurve" smooth="yes"/>
			<point x="166.0076918708" y="-20"/>
			<point x="-10.2253396282" y="280"/>
			<point x="38.6626695559" y="510" type="qcurve" smooth="yes"/>
			<point x="45.4644795294" y="542" type="line" smooth="yes"/>
			<point x="94.3524887135" y="772"/>
			<point x="398.1194572145" y="1072"/>
			<point x="598.1194572145" y="1072" type="qcurve" smooth="yes"/>
			<point x="799.1194572145" y="1072"/>
			<point x="954.7148190285" y="769"/>
			<point x="904.126357351" y="531" type="qcurve" smooth="yes"/>
			<point x="898.5998867476" y="505" type="line" smooth="yes"/>
			<point x="851.1997734952" y="282"/>
			<point x="566.0076918708" y="-20"/>
		</contour>
	</outline>
	<anchor name="bottom" x="341.8352934495" y="-416"/>
	<anchor name="top" x="653.8683259811" y="1052"/>
</glyph>
<glyph name="h" format="2">
	<unicode hex="0068"/>
	<advance width="1138"/>
	<outline>
		<contour>
			<point x="179.2588231042" y="0" type="line"/>
			<point x="-6.7411768958" y="0" type="line"/>
			<point x="302.7411768958" y="1456" type="line"/>
			<point x="488.7411768958" y="1456" type="line"/>
		</contour>
		<contour>
			<point x="253.5408371385" y="787" type="line"/>
			<point x="364.6368779507" y="938"/>
			<point x="607.1194572145" y="1072"/>
			<point x="737.1194572145" y="1072" type="qcurve" smooth="yes"/>
			<point x="884.1194572145" y="1072"/>
			<point x="1034.6467195522" y="891"/>
			<point x="989.5847284782" y="679" type="qcurve" smooth="yes"/>
			<point x="845.2588231042" y="0" type="line"/>
			<point x="659.2588231042" y="0" type="line"/>
			<point x="830.5794118103" y="806" type="line" smooth="yes"/>
			<point x="842.0574661404" y="860"/>
			<point x="735.960633594" y="916"/>
			<point x="647.960633594" y="916" type="qcurve" smooth="yes"/>
			<point x="503.960633594" y="916"/>
			<point x="311.3910633852" y="791"/>
			<point x="209.3290723112" y="579" type="qcurve"/>
		</contour>
	</outline>
	<anchor name="bottom" x="414.2588231042" y="0"/>
	<anchor name="center" x="425.2154980267" y="1223"/>
	<anchor name="top" x="395.7411768958" y="1456"/>
	<anchor name="engtail" x="752.2588231042" y="0"/>
</glyph>
<glyph name="m" format="2">
	<unicode hex="006D"/>
	<advance width="1764"/>
	<outline>
		<contour>
			<point x="-6.7411768958" y="0" type="line"/>
			<point x="216.8683259811" y="1052" type="line"/>
			<point x="384.8683259811" y="1052" type="line"/>
			<point x="361.4197964554" y="857" type="line"/>
			<point x="179.2588231042" y="0" type="line"/>
		</contour>
		<contour>
			<point x="969.5847284782" y="679" type="qcurve" smooth="yes"/>
			<point x="825.2588231042" y="0" type="line"/>
			<point x="639.2588231042" y="0" type="line"/>
			<point x="810.5794118103" y="806" type="line" smooth="yes"/>
			<point x="815.0430996053" y="827"/>
			<point x="747.960633594" y="916"/>
			<point x="620.960633594" y="916" type="qcurve" smooth="yes"/>
			<point x="528.960633594" y="916"/>
			<point x="367.617986482" y="825"/>
			<point x="206.7783935711" y="567" type="qcurve"/>
			<point x="244.8260181101" y="746" type="line"/>
			<point x="355.3615385807" y="932"/>
			<point x="596.1194572145" y="1072"/>
			<point x="715.1194572145" y="1072" type="qcurve" smooth="yes"/>
			<point x="874.1194572145" y="1072"/>
			<point x="1011.6467195522" y="891"/>
		</contour>
		<contour>
			<point x="890.8260181101" y="746" type="line"/>
			<point x="1001.3615385807" y="932"/>
			<point x="1242.1194572145" y="1072"/>
			<point x="1361.1194572145" y="1072" type="qcurve" smooth="yes"/>
			<point x="1520.1194572145" y="1072"/>
			<point x="1657.6467195522" y="891"/>
			<point x="1615.5847284782" y="679" type="qcurve" smooth="yes"/>
			<point x="1471.2588231042" y="0" type="line"/>
			<point x="1285.2588231042" y="0" type="line"/>
			<point x="1456.5794118103" y="806" type="line" smooth="yes"/>
			<point x="1461.0430996053" y="827"/>
			<point x="1382.960633594" y="916"/>
			<point x="1272.960633594" y="916" type="qcurve" smooth="yes"/>
			<point x="1174.960633594" y="916"/>
			<point x="1013.617986482" y="825"/>
			<point x="852.7783935711" y="567" type="qcurve"/>
		</contour>
	</outline>
	<anchor name="bottom" x="727.2588231042" y="0"/>
	<anchor name="top" x="950.8683259811" y="1052"/>
</glyph>
<glyph name="o" format="2">
	<unicode hex="006F"/>
	<advance width="1162"/>
	<outline>
		<contour>
			<point x="38.6626695559" y="510" type="qcurve" smooth="yes"/>
			<point x="45.4644795294" y="542" type="line" smooth="yes"/>
			<point x="96.0529412068" y="780"/>
			<point x="430.2450228312" y="1082"/>
			<point x="656.2450228312" y="1082" type="qcurve" smooth="yes"/>
			<point x="882.2450228312" y="1082"/>
			<point x="1088.0529412068" y="780"/>
			<point x="1037.4644795294" y="542" type="qcurve" smooth="yes"/>
			<point x="1030.6626695559" y="510" type="line" smooth="yes"/>
			<point x="980.0742078785" y="272"/>
			<point x="645.8821262541" y="-30"/>
			<point x="419.8821262541" y="-30" type="qcurve" smooth="yes"/>
			<point x="193.8821262541" y="-30"/>
			<point x="-11.9257921215" y="272"/>
		</contour>
		<contour>
			<point x="291.5794118103" y="806" type="qcurve" smooth="yes"/>
			<point x="172.547737275" y="246" type="line" smooth="yes"/>
			<point x="155.9683254648" y="168"/>
			<point x="307.190723628" y="122"/>
			<point x="452.190723628" y="122" type="qcurve" smooth="yes"/>
			<point x="597.190723628" y="122"/>
			<point x="767.9683254648" y="168"/>
			<point x="784.547737275" y="246" type="qcurve" smooth="yes"/>
			<point x="903.5794118103" y="806" type="line" smooth="yes"/>
			<point x="920.1588236205" y="884"/>
			<point x="769.9364254573" y="930"/>
			<point x="623.9364254573" y="930" type="qcurve" smooth="yes"/>
			<point x="478.9364254573" y="930"/>
			<point x="308.1588236205" y="884"/>
		</contour>
	</outline>
	<anchor name="bottom" x="426.2588231042" y="0"/>
	<anchor name="center" x="538.0635745427" y="526"/>
	<anchor name="ogonek" x="607.2588231042" y="0"/>
	<anchor name="top" x="649.8683259811" y="1052"/>
	<anchor name="topright" x="828.8683259811" y="1052"/>
	<anchor name="yu_dash" x="137.1891401594" y="536"/>
</glyph>
<glyph name="p" format="2">
	<unicode hex="0070"/>
	<advance width="1170"/>
	<outline>
		<contour>
			<point x="-95.1647065505" y="-416" type="line"/>
			<point x="216.8683259811" y="1052" type="line"/>
			<point x="384.8683259811" y="1052" type="line"/>
			<point x="363.7480770323" y="915" type="line"/>
			<point x="373.7480770323" y="915" type="line"/>
			<point x="90.8352934495" y="-416" type="line"/>
		</contour>
		<contour>
			<point x="499.3162892447" y="132" type="qcurve" smooth="yes"/>
			<point x="651.3162892447" y="132"/>
			<point x="774.2678729714" y="160"/>
			<point x="792.547737275" y="246" type="qcurve" smooth="yes"/>
			<point x="911.5794118103" y="806" type="line" smooth="yes"/>
			<point x="928.1588236205" y="884"/>
			<point x="815.8108598406" y="920"/>
			<point x="666.8108598406" y="920" type="qcurve" smooth="yes"/>
			<point x="500.8108598406" y="920"/>
			<point x="297.3766968501" y="758"/>
			<point x="252.7398188994" y="548" type="qcurve" smooth="yes"/>
			<point x="247.0007917343" y="521" type="line" smooth="yes"/>
			<point x="210.2285065654" y="348"/>
			<point x="327.3162892447" y="132"/>
		</contour>
		<contour>
			<point x="486.0076918708" y="-20" type="qcurve" smooth="yes"/>
			<point x="293.0076918708" y="-20"/>
			<point x="125.5863119468" y="265"/>
			<point x="179.7882351726" y="520" type="qcurve" smooth="yes"/>
			<point x="187.0151582694" y="554" type="line" smooth="yes"/>
			<point x="231.8645927818" y="765"/>
			<point x="514.1194572145" y="1072"/>
			<point x="718.1194572145" y="1072" type="qcurve" smooth="yes"/>
			<point x="918.1194572145" y="1072"/>
			<point x="1094.3524887135" y="772"/>
			<point x="1045.4644795294" y="542" type="qcurve" smooth="yes"/>
			<point x="1038.6626695559" y="510" type="line" smooth="yes"/>
			<point x="989.7746603718" y="280"/>
			<point x="686.0076918708" y="-20"/>
		</contour>
	</outline>
	<anchor name="bottom" x="487.2588231042" y="0"/>
	<anchor name="top" x="710.8683259811" y="1052"/>
</glyph>
<glyph name="q" format="2">
	<unicode hex="0071"/>
	<advance width="1170"/>
	<outline>
		<contour>
			<point x="592.8352934495" y="-416" type="line"/>
			<point x="875.7480770323" y="915" type="line"/>
			<point x="885.7480770323" y="915" type="line"/>
			<point x="922.8683259811" y="1052" type="line"/>
			<point x="1090.8683259811" y="1052" type="line"/>
			<point x="778.8352934495" y="-416" type="line"/>
		</contour>
		<contour>
			<point x="429.3162892447" y="132" type="qcurve" smooth="yes"/>
			<point x="590.3162892447" y="132"/>
			<point x="788.4509047286" y="302"/>
			<point x="831.1747736242" y="503" type="qcurve" smooth="yes"/>
			<point x="837.126357351" y="531" type="line" smooth="yes"/>
			<point x="873.8986425199" y="704"/>
			<point x="739.8108598406" y="920"/>
			<point x="586.8108598406" y="920" type="qcurve" smooth="yes"/>
			<point x="455.8108598406" y="920"/>
			<point x="308.1588236205" y="884"/>
			<point x="291.5794118103" y="806" type="qcurve" smooth="yes"/>
			<point x="172.547737275" y="246" type="line" smooth="yes"/>
			<point x="155.9683254648" y="168"/>
			<point x="278.3162892447" y="132"/>
		</contour>
		<contour>
			<point x="366.0076918708" y="-20" type="qcurve" smooth="yes"/>
			<point x="166.0076918708" y="-20"/>
			<point x="-10.2253396282" y="280"/>
			<point x="38.6626695559" y="510" type="qcurve" smooth="yes"/>
			<point x="45.4644795294" y="542" type="line" smooth="yes"/>
			<point x="94.3524887135" y="772"/>
			<point x="398.1194572145" y="1072"/>
			<point x="598.1194572145" y="1072" type="qcurve" smooth="yes"/>
			<point x="799.1194572145" y="1072"/>
			<point x="954.7148190285" y="769"/>
			<point x="904.126357351" y="531" type="qcurve" smooth="yes"/>
			<point x="898.5998867476" y="505" type="line" smooth="yes"/>
			<point x="851.1997734952" y="282"/>
			<point x="566.0076918708" y="-20"/>
		</contour>
	</outline>
	<anchor name="bottom" x="430.2588231042" y="0"/>
	<anchor name="top" x="653.8683259811" y="1052"/>
</glyph>
<glyph name="s" format="2">
	<unicode hex="0073"/>
	<advance width="1010"/>
	<outline>
		<contour>
			<point x="-8.8486427781" y="310" type="line"/>
			<point x="177.1513572219" y="310" type="line"/>
			<point x="163.547737275" y="246" type="line" smooth="yes"/>
			<point x="146.9683254648" y="168"/>
			<point x="268.190723628" y="122"/>
			<point x="381.190723628" y="122" type="qcurve" smooth="yes"/>
			<point x="490.190723628" y="122"/>
			<point x="627.9683254648" y="168"/>
			<point x="644.547737275" y="246" type="qcurve" smooth="yes"/>
			<point x="668.9917418671" y="361"/>
			<point x="595.1702486906" y="423"/>
			<point x="419.0976242808" y="465" type="qcurve" smooth="yes"/>
			<point x="257.1747736242" y="503"/>
			<point x="88.4205881897" y="650"/>
			<point x="116.0529412068" y="780" type="qcurve" smooth="yes"/>
			<point x="143.6852942239" y="910"/>
			<point x="395.2450228312" y="1082"/>
			<point x="575.2450228312" y="1082" type="qcurve" smooth="yes"/>
			<point x="755.2450228312" y="1082"/>
			<point x="938.8978507856" y="911"/>
			<point x="907.8645927818" y="765" type="qcurve" smooth="yes"/>
			<point x="906.8018099734" y="760" type="line"/>
			<point x="721.8018099734" y="760" type="line"/>
			<point x="732.4296380569" y="810" type="line" smooth="yes"/>
			<point x="746.0332580038" y="874"/>
			<point x="676.9364254573" y="930"/>
			<point x="542.9364254573" y="930" type="qcurve" smooth="yes"/>
			<point x="411.9364254573" y="930"/>
			<point x="319.3955883188" y="871"/>
			<point x="307.9175339886" y="817" type="qcurve" smooth="yes"/>
			<point x="287.9372171916" y="723"/>
			<point x="390.5461538064" y="660"/>
			<point x="552.0438913396" y="620" type="qcurve" smooth="yes"/>
			<point x="713.5416288728" y="580"/>
			<point x="866.6581446223" y="430"/>
			<point x="836.9002259885" y="290" type="qcurve" smooth="yes"/>
			<point x="807.1423073547" y="150"/>
			<point x="558.8821262541" y="-30"/>
			<point x="348.8821262541" y="-30" type="qcurve" smooth="yes"/>
			<point x="138.8821262541" y="-30"/>
			<point x="-42.2200229603" y="153"/>
			<point x="-9.9114255864" y="305" type="qcurve" smooth="yes"/>
		</contour>
	</outline>
	<anchor name="bottom" x="350.2588231042" y="0"/>
	<anchor name="top" x="573.8683259811" y="1052"/>
</glyph>
<glyph name="ae" format="2">
	<unicode hex="00E6"/>
	<advance width="1772"/>
	<outline>
		<contour>
			<point x="291.0076918708" y="-20" type="qcurve" smooth="yes"/>
			<point x="141.0076918708" y="-20"/>
			<point x="-32.8576926453" y="150"/>
			<point x="-0.9742083948" y="300" type="qcurve" smooth="yes"/>
			<point x="35.1604070891" y="470"/>
			<point x="326.9954750664" y="648"/>
			<point x="522.9954750664" y="648" type="qcurve" smooth="yes"/>
			<point x="850.9954750664" y="648" type="line"/>
			<point x="822.938008926" y="516" type="line"/>
			<point x="514.938008926" y="516" type="line" smooth="yes"/>
			<point x="374.938008926" y="516"/>
			<point x="208.4070133889" y="410"/>
			<point x="189.2769228386" y="320" type="qcurve" smooth="yes"/>
			<point x="170.1468322883" y="230"/>
			<point x="252.466062998" y="128"/>
			<point x="362.466062998" y="128" type="qcurve" smooth="yes"/>
			<point x="471.466062998" y="128"/>
			<point x="664.2822395065" y="193"/>
			<point x="682.3495472485" y="278" type="qcurve"/>
			<point x="799.6807692903" y="830" type="line" smooth="yes"/>
			<point x="819.873642649" y="925"/>
			<point x="723.786651704" y="934"/>
			<point x="603.786651704" y="934" type="qcurve" smooth="yes"/>
			<point x="483.786651704" y="934"/>
			<point x="374.8350679773" y="906"/>
			<point x="353.5794118103" y="806" type="qcurve" smooth="yes"/>
			<point x="344.8645927818" y="765" type="line"/>
			<point x="159.8645927818" y="765" type="line"/>
			<point x="160.9273755901" y="770" type="line" smooth="yes"/>
			<point x="187.4969457989" y="895"/>
			<point x="450.2450228312" y="1082"/>
			<point x="640.2450228312" y="1082" type="qcurve" smooth="yes"/>
			<point x="804.2450228312" y="1082"/>
			<point x="947.9750001291" y="949"/>
			<point x="941.6081448805" y="872" type="qcurve"/>
			<point x="978.1875566907" y="950"/>
			<point x="1174.2450228312" y="1082"/>
			<point x="1320.2450228312" y="1082" type="qcurve" smooth="yes"/>
			<point x="1535.2450228312" y="1082"/>
			<point x="1707.3040724402" y="800"/>
			<point x="1656.2904976394" y="560" type="qcurve" smooth="yes"/>
			<point x="1640.1361989525" y="484" type="line"/>
			<point x="831.1361989525" y="484" type="line"/>
			<point x="862.5945700797" y="632" type="line"/>
			<point x="1483.5945700797" y="632" type="line"/>
			<point x="1520.7919683719" y="807" type="line" smooth="yes"/>
			<point x="1534.3955883188" y="871"/>
			<point x="1425.9364254573" y="930"/>
			<point x="1284.9364254573" y="930" type="qcurve" smooth="yes"/>
			<point x="1147.9364254573" y="930"/>
			<point x="981.7435520987" y="835"/>
			<point x="966.2269230968" y="762" type="qcurve" smooth="yes"/>
			<point x="878.0159500037" y="347" type="line" smooth="yes"/>
			<point x="855.6975110284" y="242"/>
			<point x="984.190723628" y="122"/>
			<point x="1146.190723628" y="122" type="qcurve" smooth="yes"/>
			<point x="1266.190723628" y="122"/>
			<point x="1408.8957010549" y="210"/>
			<point x="1466.6490947551" y="270" type="qcurve"/>
			<point x="1566.4562213965" y="175" type="line"/>
			<point x="1500.5144792712" y="100"/>
			<point x="1263.8821262541" y="-30"/>
			<point x="1113.8821262541" y="-30" type="qcurve" smooth="yes"/>
			<point x="967.8821262541" y="-30"/>
			<point x="761.3889136545" y="90"/>
			<point x="733.5333707399" y="213" type="qcurve"/>
			<point x="668.3019227096" y="99"/>
			<point x="443.0076918708" y="-20"/>
		</contour>
	</outline>
	<anchor name="top" x="968.8683259811" y="1052"/>
</glyph>
<glyph name="eth" format="2">
	<unicode hex="00F0"/>
	<advance width="1114"/>
	<outline>
		<contour>
			<point x="338.983258262" y="1316" type="qcurve"/>
			<point x="429.9923081292" y="1476" type="line"/>
			<point x="751.0505660039" y="1401"/>
			<point x="1082.1391404175" y="978"/>
			<point x="1008.8071266413" y="633" type="qcurve"/>
			<point x="987.9765835977" y="535" type="line"/>
			<point x="935.6876694269" y="289"/>
			<point x="604.0076918708" y="-20"/>
			<point x="402.0076918708" y="-20" type="qcurve" smooth="yes"/>
			<point x="192.0076918708" y="-20"/>
			<point x="-13.4136880532" y="265"/>
			<point x="29.7352939658" y="468" type="qcurve" smooth="yes"/>
			<point x="78.6233031499" y="698"/>
			<point x="393.1391404175" y="978"/>
			<point x="586.1391404175" y="978" type="qcurve" smooth="yes"/>
			<point x="755.1391404175" y="978"/>
			<point x="937.4636877951" y="749"/>
			<point x="908.7685519696" y="614" type="qcurve"/>
			<point x="839.7685519696" y="614" type="line"/>
			<point x="877.1785068235" y="790"/>
			<point x="755.8305430437" y="826"/>
			<point x="597.8305430437" y="826" type="qcurve" smooth="yes"/>
			<point x="438.8305430437" y="826"/>
			<point x="283.3282805769" y="786"/>
			<point x="215.7352939658" y="468" type="qcurve" smooth="yes"/>
			<point x="153.6687779581" y="176"/>
			<point x="285.3162892447" y="132"/>
			<point x="438.3162892447" y="132" type="qcurve" smooth="yes"/>
			<point x="579.3162892447" y="132"/>
			<point x="726.0938910815" y="178"/>
			<point x="801.9765835977" y="535" type="qcurve" smooth="yes"/>
			<point x="823.2322397647" y="635" type="line" smooth="yes"/>
			<point x="891.0377829374" y="954"/>
			<point x="578.9545251918" y="1250"/>
		</contour>
		<contour>
			<point x="1064.258597632" y="1322" type="line"/>
			<point x="419.679977556" y="1037" type="line"/>
			<point x="382.5248871348" y="1168" type="line"/>
			<point x="1025.8909506491" y="1452" type="line"/>
		</contour>
	</outline>
</glyph>
<glyph name="oe" format="2">
	<unicode hex="0153"/>
	<advance width="1889"/>
	<outline>
		<contour>
			<point x="419.8821262541" y="-30" type="qcurve" smooth="yes"/>
			<point x="193.8821262541" y="-30"/>
			<point x="-11.9257921215" y="272"/>
			<point x="38.6626695559" y="510" type="qcurve" smooth="yes"/>
			<point x="45.4644795294" y="542" type="line" smooth="yes"/>
			<point x="96.0529412068" y="780"/>
			<point x="430.0324662695" y="1081"/>
			<point x="656.0324662695" y="1081" type="qcurve" smooth="yes"/>
			<point x="820.0324662695" y="1081"/>
			<point x="998.0234164023" y="921"/>
			<point x="1006.3328055105" y="866" type="qcurve"/>
			<point x="1039.0861992107" y="926"/>
			<point x="1291.0324662695" y="1081"/>
			<point x="1445.0324662695" y="1081" type="qcurve" smooth="yes"/>
			<point x="1652.0324662695" y="1081"/>
			<point x="1824.3040724402" y="800"/>
			<point x="1773.2904976394" y="560" type="qcurve" smooth="yes"/>
			<point x="1757.1361989525" y="484" type="line"/>
			<point x="948.1361989525" y="484" type="line"/>
			<point x="979.5945700797" y="632" type="line"/>
			<point x="1600.5945700797" y="632" type="line"/>
			<point x="1637.5794118103" y="806" type="line" smooth="yes"/>
			<point x="1654.1588236205" y="884"/>
			<point x="1544.7238688957" y="929"/>
			<point x="1412.7238688957" y="929" type="qcurve" smooth="yes"/>
			<point x="1259.7238688957" y="929"/>
			<point x="1100.2314480304" y="842"/>
			<point x="1083.6520362201" y="764" type="qcurve" smooth="yes"/>
			<point x="984.6006784819" y="298" type="line" smooth="yes"/>
			<point x="968.0212666716" y="220"/>
			<point x="1091.190723628" y="122"/>
			<point x="1253.190723628" y="122" type="qcurve" smooth="yes"/>
			<point x="1363.190723628" y="122"/>
			<point x="1525.8957010549" y="210"/>
			<point x="1583.6490947551" y="270" type="qcurve"/>
			<point x="1683.4562213965" y="175" type="line"/>
			<point x="1617.5144792712" y="100"/>
			<point x="1380.8821262541" y="-30"/>
			<point x="1220.8821262541" y="-30" type="qcurve" smooth="yes"/>
			<point x="1054.8821262541" y="-30"/>
			<point x="877.6400448879" y="110"/>
			<point x="863.5817870132" y="185" type="qcurve"/>
			<point x="817.8526014496" y="111"/>
			<point x="583.8821262541" y="-30"/>
		</contour>
		<contour>
			<point x="452.190723628" y="122" type="qcurve" smooth="yes"/>
			<point x="614.190723628" y="122"/>
			<point x="779.0212666716" y="220"/>
			<point x="795.6006784819" y="298" type="qcurve" smooth="yes"/>
			<point x="894.6520362201" y="764" type="line" smooth="yes"/>
			<point x="911.2314480304" y="842"/>
			<point x="785.9364254573" y="930"/>
			<point x="623.9364254573" y="930" type="qcurve" smooth="yes"/>
			<point x="469.9364254573" y="930"/>
			<point x="308.1588236205" y="884"/>
			<point x="291.5794118103" y="806" type="qcurve" smooth="yes"/>
			<point x="172.547737275" y="246" type="line" smooth="yes"/>
			<point x="155.9683254648" y="168"/>
			<point x="299.190723628" y="122"/>
		</contour>
	</outline>
</glyph>
<glyph name="schwa" format="2">
	<unicode hex="0259"/>
	<advance width="1088"/>
	<outline>
		<contour>
			<point x="963.4644795294" y="542" type="qcurve" smooth="yes"/>
			<point x="956.6626695559" y="510" type="line" smooth="yes"/>
			<point x="906.0742078785" y="272"/>
			<point x="580.8821262541" y="-30"/>
			<point x="354.8821262541" y="-30" type="qcurve" smooth="yes"/>
			<point x="150.8821262541" y="-30"/>
			<point x="-21.1769233549" y="252"/>
			<point x="29.8366514459" y="492" type="qcurve" smooth="yes"/>
			<point x="45.9909501328" y="568" type="line"/>
			<point x="873.9909501328" y="568" type="line"/>
			<point x="842.5325790056" y="420" type="line"/>
			<point x="201.5325790056" y="420" type="line"/>
			<point x="164.547737275" y="246" type="line" smooth="yes"/>
			<point x="148.6059951498" y="171"/>
			<point x="274.190723628" y="122"/>
			<point x="387.190723628" y="122" type="qcurve" smooth="yes"/>
			<point x="545.190723628" y="122"/>
			<point x="693.9683254648" y="168"/>
			<point x="710.547737275" y="246" type="qcurve" smooth="yes"/>
			<point x="829.5794118103" y="806" type="line" smooth="yes"/>
			<point x="837.6565611537" y="844"/>
			<point x="711.9364254573" y="930"/>
			<point x="526.9364254573" y="930" type="qcurve" smooth="yes"/>
			<point x="421.9364254573" y="930"/>
			<point x="256.2942308387" y="847"/>
			<point x="184.9031674535" y="784" type="qcurve"/>
			<point x="119.6709276888" y="877" type="line"/>
			<point x="185.6126698141" y="952"/>
			<point x="422.2450228312" y="1082"/>
			<point x="572.2450228312" y="1082" type="qcurve" smooth="yes"/>
			<point x="817.2450228312" y="1082"/>
			<point x="1014.0529412068" y="780"/>
		</contour>
	</outline>
</glyph>
<glyph name="alpha" format="2">
	<unicode hex="03B1"/>
	<advance width="1236"/>
	<outline>
		<contour>
			<point x="366.0076918708" y="-20" type="qcurve" smooth="yes"/>
			<point x="166.0076918708" y="-20"/>
			<point x="-10.2253396282" y="280"/>
			<point x="38.6626695559" y="510" type="qcurve" smooth="yes"/>
			<point x="45.4644795294" y="542" type="line" smooth="yes"/>
			<point x="94.3524887135" y="772"/>
			<point x="398.1194572145" y="1072"/>
			<point x="598.1194572145" y="1072" type="qcurve" smooth="yes"/>
			<point x="805.1194572145" y="1072"/>
			<point x="956.2027149602" y="776"/>
			<point x="904.126357351" y="531" type="qcurve" smooth="yes"/>
			<point x="898.5998867476" y="505" type="line" smooth="yes"/>
			<point x="851.1997734952" y="282"/>
			<point x="566.0076918708" y="-20"/>
		</contour>
		<contour>
			<point x="426.3162892447" y="132" type="qcurve" smooth="yes"/>
			<point x="584.3162892447" y="132"/>
			<point x="799.5038459354" y="354"/>
			<point x="831.1747736242" y="503" type="qcurve" smooth="yes"/>
			<point x="837.126357351" y="531" type="line" smooth="yes"/>
			<point x="873.8986425199" y="704"/>
			<point x="747.8108598406" y="920"/>
			<point x="593.8108598406" y="920" type="qcurve" smooth="yes"/>
			<point x="437.8108598406" y="920"/>
			<point x="308.1588236205" y="884"/>
			<point x="291.5794118103" y="806" type="qcurve" smooth="yes"/>
			<point x="172.547737275" y="246" type="line" smooth="yes"/>
			<point x="155.9683254648" y="168"/>
			<point x="273.3162892447" y="132"/>
		</contour>
		<contour>
			<point x="914.8821262541" y="-30" type="qcurve" smooth="yes"/>
			<point x="817.8821262541" y="-30"/>
			<point x="722.5243208727" y="53"/>
			<point x="728.0795245464" y="145" type="qcurve"/>
			<point x="712.0795245464" y="145" type="line"/>
			<point x="875.7480770323" y="915" type="line"/>
			<point x="890.7480770323" y="915" type="line"/>
			<point x="927.8683259811" y="1052" type="line"/>
			<point x="1090.8683259811" y="1052" type="line"/>
			<point x="922.9486422618" y="262" type="line" smooth="yes"/>
			<point x="907.0069001365" y="187"/>
			<point x="939.8911761213" y="130"/>
			<point x="989.8911761213" y="130" type="qcurve"/>
			<point x="1004.8911761213" y="130"/>
			<point x="1043.379072053" y="137"/>
			<point x="1061.8669679847" y="144" type="qcurve"/>
			<point x="1029.5583706109" y="-8" type="line"/>
			<point x="1008.6453615558" y="-17"/>
			<point x="948.8821262541" y="-30"/>
		</contour>
	</outline>
	<anchor name="top" x="618.8683259811" y="1052"/>
</glyph>
<glyph name="beta" format="2">
	<unicode hex="03B2"/>
	<advance width="1190"/>
	<outline>
		<contour>
			<point x="-95.1647065505" y="-416" type="line"/>
			<point x="201.1391404175" y="978" type="line" smooth="yes"/>
			<point x="254.91595052" y="1231"/>
			<point x="555.9923081292" y="1476"/>
			<point x="753.9923081292" y="1476" type="qcurve" smooth="yes"/>
			<point x="956.9923081292" y="1476"/>
			<point x="1129.2056564252" y="1270"/>
			<point x="1087.7571268995" y="1075" type="qcurve"/>
			<point x="1062.4628960608" y="956"/>
			<point x="884.8403846452" y="779"/>
			<point x="775.5264706034" y="754" type="qcurve"/>
			<point x="778.9273755901" y="770" type="line"/>
			<point x="927.6762443567" y="750"/>
			<point x="1069.2904976394" y="560"/>
			<point x="1040.1702486906" y="423" type="qcurve" smooth="yes"/>
			<point x="999.7845019733" y="233"/>
			<point x="675.7951353092" y="-21"/>
			<point x="486.7951353092" y="-21" type="qcurve" smooth="yes"/>
			<point x="338.7951353092" y="-21"/>
			<point x="171.5046376697" y="147"/>
			<point x="137.2481897684" y="254" type="qcurve"/>
			<point x="187.6240948842" y="491" type="line"/>
			<point x="213.9244341252" y="276"/>
			<point x="358.3162892447" y="132"/>
			<point x="506.3162892447" y="132" type="qcurve" smooth="yes"/>
			<point x="648.3162892447" y="132"/>
			<point x="798.0311082731" y="173"/>
			<point x="850.957692129" y="422" type="qcurve" smooth="yes"/>
			<point x="876.039366406" y="540"/>
			<point x="756.8600678482" y="685"/>
			<point x="560.8600678482" y="685" type="qcurve" smooth="yes"/>
			<point x="462.8600678482" y="685" type="line"/>
			<point x="493.0430996053" y="827" type="line"/>
			<point x="592.0430996053" y="827" type="line" smooth="yes"/>
			<point x="737.0430996053" y="827"/>
			<point x="889.8010182391" y="967"/>
			<point x="912.9696834612" y="1076" type="qcurve" smooth="yes"/>
			<point x="958.6693442202" y="1291"/>
			<point x="864.6837107553" y="1324"/>
			<point x="721.6837107553" y="1324" type="qcurve" smooth="yes"/>
			<point x="577.6837107553" y="1324"/>
			<point x="454.9446835902" y="1297"/>
			<point x="388.6270363492" y="985" type="qcurve" smooth="yes"/>
			<point x="90.8352934495" y="-416" type="line"/>
		</contour>
	</outline>
</glyph>
<glyph name="delta" format="2">
	<unicode hex="03B4"/>
	<advance width="1142"/>
	<outline>
		<contour>
			<point x="399.8821262541" y="-30" type="qcurve" smooth="yes"/>
			<point x="175.8821262541" y="-30"/>
			<point x="-20.64061115" y="231"/>
			<point x="23.5711536774" y="439" type="qcurve" smooth="yes"/>
			<point x="29.9478505275" y="469" type="line" smooth="yes"/>
			<point x="74.5847284782" y="679"/>
			<point x="392.3615385807" y="932"/>
			<point x="612.0377829374" y="954" type="qcurve"/>
			<point x="738.3085973738" y="880" type="line"/>
			<point x="524.1830317571" y="870"/>
			<point x="283.7776018368" y="774"/>
			<point x="263.5847284782" y="679" type="qcurve" smooth="yes"/>
			<point x="173.2481897684" y="254" type="line"/>
			<point x="157.7315607665" y="181"/>
			<point x="266.190723628" y="122"/>
			<point x="432.190723628" y="122" type="qcurve" smooth="yes"/>
			<point x="600.190723628" y="122"/>
			<point x="752.5817870132" y="185"/>
			<point x="769.3737553851" y="264" type="qcurve"/>
			<point x="859.4977375332" y="688" type="line" smooth="yes"/>
			<point x="870.3381221784" y="739"/>
			<point x="764.9901583985" y="775"/>
			<point x="609.9319005237" y="850" type="qcurve" smooth="yes"/>
			<point x="462.235972964" y="922"/>
			<point x="340.9938915978" y="1062"/>
			<point x="363.0997740115" y="1166" type="qcurve" smooth="yes"/>
			<point x="392.6451360836" y="1305"/>
			<point x="639.9923081292" y="1476"/>
			<point x="831.9923081292" y="1476" type="qcurve" smooth="yes"/>
			<point x="931.9923081292" y="1476"/>
			<point x="1068.9151587857" y="1438"/>
			<point x="1123.3259053739" y="1407" type="qcurve"/>
			<point x="1059.5921948768" y="1253" type="line"/>
			<point x="982.3070139052" y="1294"/>
			<point x="855.6837107553" y="1324"/>
			<point x="799.6837107553" y="1324" type="qcurve" smooth="yes"/>
			<point x="691.6837107553" y="1324"/>
			<point x="561.553620205" y="1234"/>
			<point x="548.1625568198" y="1171" type="qcurve" smooth="yes"/>
			<point x="536.471945928" y="1116"/>
			<point x="591.1436653511" y="1058"/>
			<point x="724.3516969792" y="979" type="qcurve" smooth="yes"/>
			<point x="932.2072398938" y="856"/>
			<point x="1039.1452488197" y="644"/>
			<point x="1007.4743211309" y="495" type="qcurve" smooth="yes"/>
			<point x="1001.3101808425" y="466" type="line" smooth="yes"/>
			<point x="950.9342757267" y="229"/>
			<point x="611.8821262541" y="-30"/>
		</contour>
	</outline>
</glyph>
<glyph name="epsilon" format="2">
	<unicode hex="03B5"/>
	<advance width="1078"/>
	<outline>
		<contour>
			<point x="381.8821262541" y="-30" type="qcurve"/>
			<point x="165.8821262541" y="-30"/>
			<point x="-27.4711541937" y="133"/>
			<point x="5.0499997419" y="286" type="qcurve" smooth="yes"/>
			<point x="25.0303165388" y="380"/>
			<point x="188.6384614193" y="524"/>
			<point x="335.1891401594" y="536" type="qcurve"/>
			<point x="330.5128958026" y="514" type="line"/>
			<point x="220.126357351" y="531"/>
			<point x="123.1210406831" y="658"/>
			<point x="143.9515837268" y="756" type="qcurve" smooth="yes"/>
			<point x="175.8350679773" y="906"/>
			<point x="438.0324662695" y="1081"/>
			<point x="648.0324662695" y="1081" type="qcurve" smooth="yes"/>
			<point x="871.0324662695" y="1081"/>
			<point x="1041.6323530171" y="858"/>
			<point x="1010.1739818899" y="710" type="qcurve"/>
			<point x="830.1739818899" y="710" type="line"/>
			<point x="868.8592761139" y="892"/>
			<point x="768.9364254573" y="930"/>
			<point x="615.9364254573" y="930" type="qcurve" smooth="yes"/>
			<point x="484.9364254573" y="930"/>
			<point x="362.9220589222" y="897"/>
			<point x="332.7390271651" y="755" type="qcurve" smooth="yes"/>
			<point x="311.2708144364" y="654"/>
			<point x="394.1550904212" y="597"/>
			<point x="481.1550904212" y="597" type="qcurve" smooth="yes"/>
			<point x="691.1550904212" y="597" type="line"/>
			<point x="660.9720586641" y="455" type="line"/>
			<point x="450.9720586641" y="455" type="line" smooth="yes"/>
			<point x="329.9720586641" y="455"/>
			<point x="216.5182124705" y="387"/>
			<point x="197.1755653586" y="296" type="qcurve" smooth="yes"/>
			<point x="172.3064476432" y="179"/>
			<point x="271.190723628" y="122"/>
			<point x="424.190723628" y="122" type="qcurve"/>
			<point x="569.190723628" y="122"/>
			<point x="712.2678729714" y="160"/>
			<point x="750.9531671954" y="342" type="qcurve"/>
			<point x="930.9531671954" y="342" type="line"/>
			<point x="898.8571263832" y="191"/>
			<point x="598.8821262541" y="-30"/>
		</contour>
	</outline>
	<anchor name="top" x="641.8683259811" y="1052"/>
</glyph>
<glyph name="theta" format="2">
	<unicode hex="03B8"/>
	<advance width="1143"/>
	<outline>
		<contour>
			<point x="411.8821262541" y="-30" type="qcurve" smooth="yes"/>
			<point x="192.8821262541" y="-30"/>
			<point x="0.6248866185" y="284"/>
			<point x="79.2708144364" y="654" type="qcurve"/>
			<point x="110.7291855636" y="802" type="line"/>
			<point x="187.2495477648" y="1162"/>
			<point x="510.9923081292" y="1476"/>
			<point x="729.9923081292" y="1476" type="qcurve" smooth="yes"/>
			<point x="950.9923081292" y="1476"/>
			<point x="1140.2495477648" y="1162"/>
			<point x="1063.7291855636" y="802" type="qcurve"/>
			<point x="1032.2708144364" y="654" type="line"/>
			<point x="953.6248866185" y="284"/>
			<point x="632.8821262541" y="-30"/>
		</contour>
		<contour>
			<point x="445.190723628" y="122" type="qcurve" smooth="yes"/>
			<point x="591.190723628" y="122"/>
			<point x="735.8427598481" y="158"/>
			<point x="832.7685519696" y="614" type="qcurve"/>
			<point x="879.9561086604" y="836" type="line" smooth="yes"/>
			<point x="975.1814482885" y="1284"/>
			<point x="844.6837107553" y="1324"/>
			<point x="698.6837107553" y="1324" type="qcurve" smooth="yes"/>
			<point x="554.6837107553" y="1324"/>
			<point x="404.1814482885" y="1284"/>
			<point x="308.9561086604" y="836" type="qcurve" smooth="yes"/>
			<point x="261.7685519696" y="614" type="line" smooth="yes"/>
			<point x="164.8427598481" y="158"/>
			<point x="303.190723628" y="122"/>
		</contour>
		<contour>
			<point x="178.3093891081" y="673" type="line"/>
			<point x="208.4924208653" y="815" type="line"/>
			<point x="971.4924208653" y="815" type="line"/>
			<point x="941.3093891081" y="673" type="line"/>
		</contour>
	</outline>
</glyph>
<glyph name="rho" format="2">
	<unicode hex="03C1"/>
	<advance width="1170"/>
	<outline>
		<contour>
			<point x="-95.1647065505" y="-416" type="line"/>
			<point x="108.2519229677" y="541" type="line" smooth="yes"/>
			<point x="160.7533937002" y="788"/>
			<point x="471.1194572145" y="1072"/>
			<point x="688.1194572145" y="1072" type="qcurve" smooth="yes"/>
			<point x="928.1194572145" y="1072"/>
			<point x="1096.4780543302" y="782"/>
			<point x="1047.5900451461" y="552" type="qcurve" smooth="yes"/>
			<point x="1040.7882351726" y="520" type="line" smooth="yes"/>
			<point x="991.9002259885" y="290"/>
			<point x="686.0076918708" y="-20"/>
			<point x="486.0076918708" y="-20" type="qcurve" smooth="yes"/>
			<point x="348.0076918708" y="-20"/>
			<point x="194.7898186412" y="106"/>
			<point x="143.1611988234" y="263" type="qcurve"/>
			<point x="195.8752261176" y="511" type="line"/>
			<point x="221.6392531536" y="317"/>
			<point x="345.3162892447" y="132"/>
			<point x="478.3162892447" y="132" type="qcurve" smooth="yes"/>
			<point x="638.3162892447" y="132"/>
			<point x="780.0069001365" y="187"/>
			<point x="792.9728503984" y="248" type="qcurve" smooth="yes"/>
			<point x="911.7919683719" y="807" type="line" smooth="yes"/>
			<point x="926.6709276888" y="877"/>
			<point x="813.8108598406" y="920"/>
			<point x="655.8108598406" y="920" type="qcurve" smooth="yes"/>
			<point x="529.8108598406" y="920"/>
			<point x="373.7480770323" y="915"/>
			<point x="350.7919683719" y="807" type="qcurve" smooth="yes"/>
			<point x="90.8352934495" y="-416" type="line"/>
		</contour>
	</outline>
</glyph>
<glyph name="sigma" format="2">
	<unicode hex="03C3"/>
	<advance width="1227"/>
	<outline>
		<contour>
			<point x="419.8821262541" y="-30" type="qcurve" smooth="yes"/>
			<point x="193.8821262541" y="-30"/>
			<point x="-16.6020364783" y="250"/>
			<point x="32.4985292675" y="481" type="qcurve" smooth="yes"/>
			<point x="39.0877826793" y="512" type="line" smooth="yes"/>
			<point x="87.55067874" y="740"/>
			<point x="451.8683259811" y="1052"/>
			<point x="758.8683259811" y="1052" type="qcurve"/>
			<point x="1245.8683259811" y="1052" type="line"/>
			<point x="1213.5597286072" y="900" type="line"/>
			<point x="882.5597286072" y="900" type="line"/>
			<point x="885.322963909" y="913" type="line"/>
			<point x="988.3328055105" y="866"/>
			<point x="1065.7345022315" y="675"/>
			<point x="1034.0635745427" y="526" type="qcurve" smooth="yes"/>
			<point x="1027.4743211309" y="495" type="line" smooth="yes"/>
			<point x="978.3737553851" y="264"/>
			<point x="645.8821262541" y="-30"/>
		</contour>
		<contour>
			<point x="452.190723628" y="122" type="qcurve" smooth="yes"/>
			<point x="604.190723628" y="122"/>
			<point x="768.1808820265" y="169"/>
			<point x="783.6975110284" y="242" type="qcurve" smooth="yes"/>
			<point x="905.4924208653" y="815" type="line" smooth="yes"/>
			<point x="917.3955883188" y="871"/>
			<point x="808.2458145655" y="875"/>
			<point x="727.3471720456" y="899" type="qcurve"/>
			<point x="501.8350679773" y="906"/>
			<point x="302.4197964554" y="857"/>
			<point x="293.2798643036" y="814" type="qcurve" smooth="yes"/>
			<point x="171.6975110284" y="242" type="line" smooth="yes"/>
			<point x="158.5190042048" y="180"/>
			<point x="300.190723628" y="122"/>
		</contour>
	</outline>
</glyph>
<glyph name="psi" format="2">
	<unicode hex="03C8"/>
	<advance width="1438"/>
	<outline>
		<contour>
			<point x="382.8352934495" y="-416" type="line"/>
			<point x="780.7411768958" y="1456" type="line"/>
			<point x="966.7411768958" y="1456" type="line"/>
			<point x="568.8352934495" y="-416" type="line"/>
		</contour>
		<contour>
			<point x="467.0076918708" y="-20" type="line"/>
			<point x="260.1332574875" y="-10"/>
			<point x="33.63472822" y="237"/>
			<point x="85.2859727058" y="480" type="qcurve" smooth="yes"/>
			<point x="206.8683259811" y="1052" type="line"/>
			<point x="392.8683259811" y="1052" type="line"/>
			<point x="210.2822395065" y="193" type="line" smooth="yes"/>
			<point x="208.1566738898" y="183"/>
			<point x="365.292081108" y="146"/>
			<point x="500.1665154913" y="136" type="qcurve"/>
			<point x="686.1665154913" y="136" type="line"/>
			<point x="825.292081108" y="146"/>
			<point x="998.1566738898" y="183"/>
			<point x="1000.2822395065" y="193" type="qcurve" smooth="yes"/>
			<point x="1182.8683259811" y="1052" type="line"/>
			<point x="1368.8683259811" y="1052" type="line"/>
			<point x="1247.2859727058" y="480" type="line" smooth="yes"/>
			<point x="1195.63472822" y="237"/>
			<point x="864.1332574875" y="-10"/>
			<point x="653.0076918708" y="-20" type="qcurve"/>
		</contour>
	</outline>
</glyph>
<glyph name="be" format="2">
	<unicode hex="0431"/>
	<advance width="1172"/>
	<outline>
		<contour>
			<point x="241.213348296" y="522" type="qcurve" smooth="yes"/>
			<point x="234.4115383225" y="490" type="line" smooth="yes"/>
			<point x="165.9683254648" y="168"/>
			<point x="301.190723628" y="122"/>
			<point x="462.190723628" y="122" type="qcurve" smooth="yes"/>
			<point x="620.190723628" y="122"/>
			<point x="778.6059951498" y="171"/>
			<point x="846.4115383225" y="490" type="qcurve" smooth="yes"/>
			<point x="853.213348296" y="522" type="line" smooth="yes"/>
			<point x="922.2942308387" y="847"/>
			<point x="783.4341629905" y="890"/>
			<point x="625.4341629905" y="890" type="qcurve" smooth="yes"/>
			<point x="467.4341629905" y="890"/>
			<point x="291.3766968501" y="758"/>
		</contour>
		<contour>
			<point x="703.7427603644" y="1042" type="qcurve" smooth="yes"/>
			<point x="912.7427603644" y="1042"/>
			<point x="1090.6134615484" y="745"/>
			<point x="1043.213348296" y="522" type="qcurve" smooth="yes"/>
			<point x="1036.4115383225" y="490" type="line" smooth="yes"/>
			<point x="987.7360857001" y="261"/>
			<point x="655.8821262541" y="-30"/>
			<point x="429.8821262541" y="-30" type="qcurve" smooth="yes"/>
			<point x="195.8821262541" y="-30"/>
			<point x="-3.8388011766" y="263"/>
			<point x="68.8555429146" y="605" type="qcurve" smooth="yes"/>
			<point x="74.382013518" y="631" type="line" smooth="yes"/>
			<point x="152.6028282126" y="999"/>
			<point x="463.1958148236" y="1317"/>
			<point x="802.8236429071" y="1367" type="qcurve" smooth="yes"/>
			<point x="980.5626700722" y="1394"/>
			<point x="1042.6398194157" y="1432"/>
			<point x="1051.7411768958" y="1456" type="qcurve"/>
			<point x="1215.7411768958" y="1456" type="line"/>
			<point x="1182.4227379204" y="1351"/>
			<point x="1009.278280835" y="1228"/>
			<point x="788.1141405466" y="1199" type="qcurve" smooth="yes"/>
			<point x="526.0997740115" y="1166"/>
			<point x="310.8440579046" y="995.5959757812"/>
			<point x="252.5166290019" y="801" type="qcurve"/>
			<point x="263.5166290019" y="801" type="line"/>
			<point x="339.322963909" y="913"/>
			<point x="566.7427603644" y="1042"/>
		</contour>
	</outline>
</glyph>
<glyph name="ze" format="2">
	<unicode hex="0437"/>
	<advance width="1095"/>
	<outline>
		<contour>
			<point x="375.8821262541" y="-30" type="qcurve" smooth="yes"/>
			<point x="145.3383060294" y="-30"/>
			<point x="-23.8675342468" y="197"/>
			<point x="5.890384387" y="337" type="qcurve" smooth="yes"/>
			<point x="6.9531671954" y="342" type="line"/>
			<point x="186.9531671954" y="342" type="line"/>
			<point x="166.547737275" y="246" type="line" smooth="yes"/>
			<point x="147.4176467247" y="156"/>
			<point x="257.190723628" y="122"/>
			<point x="409.190723628" y="122" type="qcurve" smooth="yes"/>
			<point x="535.190723628" y="122"/>
			<point x="677.9055426564" y="163"/>
			<point x="708.9388006603" y="309" type="qcurve" smooth="yes"/>
			<point x="728.7065608956" y="402"/>
			<point x="647.6725111574" y="463"/>
			<point x="545.6725111574" y="463" type="qcurve" smooth="yes"/>
			<point x="360.6725111574" y="463" type="line"/>
			<point x="391.2806560379" y="607" type="line"/>
			<point x="546.2806560379" y="607" type="line" smooth="yes"/>
			<point x="648.87539288" y="607"/>
			<point x="752.6717194231" y="670"/>
			<point x="772.0143665351" y="761" type="qcurve" smooth="yes"/>
			<point x="798.5839367439" y="886"/>
			<point x="705.9364254573" y="930"/>
			<point x="592.9364254573" y="930" type="qcurve" smooth="yes"/>
			<point x="451.9364254573" y="930"/>
			<point x="321.7337104972" y="882"/>
			<point x="305.5794118103" y="806" type="qcurve" smooth="yes"/>
			<point x="285.1739818899" y="710" type="line"/>
			<point x="105.1739818899" y="710" type="line"/>
			<point x="106.2367646983" y="715" type="line" smooth="yes"/>
			<point x="141.7337104972" y="882"/>
			<point x="415.2450228312" y="1082"/>
			<point x="625.2450228312" y="1082" type="qcurve" smooth="yes"/>
			<point x="825.2450228312" y="1082"/>
			<point x="992.960633594" y="916"/>
			<point x="963.2027149602" y="776" type="qcurve" smooth="yes"/>
			<point x="945.9856334649" y="695"/>
			<point x="809.5761707126" y="563.3365492699"/>
			<point x="714.8895926527" y="544" type="qcurve"/>
			<point x="714.2519229677" y="541" type="line"/>
			<point x="818.8225194011" y="525.0043592851"/>
			<point x="916.1316740189" y="404"/>
			<point x="895.9388006603" y="309" type="qcurve" smooth="yes"/>
			<point x="861.0795245464" y="145"/>
			<point x="568.5916606222" y="-30"/>
		</contour>
	</outline>
	<anchor name="bottom" x="401.0462665426" y="-1"/>
</glyph>
<glyph name="ecyr" format="2">
	<unicode hex="044D"/>
	<advance width="1068"/>
	<outline>
		<contour>
			<point x="936.6626695559" y="510" type="line" smooth="yes"/>
			<point x="883.5235291384" y="260"/>
			<point x="562.8821262541" y="-30"/>
			<point x="345.8821262541" y="-30" type="qcurve" smooth="yes"/>
			<point x="130.8821262541" y="-30"/>
			<point x="-43.8675342468" y="197"/>
			<point x="-14.109615613" y="337" type="qcurve" smooth="yes"/>
			<point x="-13.0468328046" y="342" type="line"/>
			<point x="166.9531671954" y="342" type="line"/>
			<point x="142.2966060416" y="226" type="line" smooth="yes"/>
			<point x="129.9683254648" y="168"/>
			<point x="243.190723628" y="122"/>
			<point x="378.190723628" y="122" type="qcurve" smooth="yes"/>
			<point x="521.190723628" y="122"/>
			<point x="685.2822395065" y="193"/>
			<point x="696.547737275" y="246" type="qcurve" smooth="yes"/>
			<point x="815.5794118103" y="806" type="line" smooth="yes"/>
			<point x="827.9076923871" y="864"/>
			<point x="690.9364254573" y="930"/>
			<point x="553.9364254573" y="930" type="qcurve" smooth="yes"/>
			<point x="415.9364254573" y="930"/>
			<point x="287.8592761139" y="892"/>
			<point x="275.9561086604" y="836" type="qcurve" smooth="yes"/>
			<point x="249.1739818899" y="710" type="line"/>
			<point x="69.1739818899" y="710" type="line"/>
			<point x="70.2367646983" y="715" type="line" smooth="yes"/>
			<point x="99.9946833321" y="855"/>
			<point x="371.2450228312" y="1082"/>
			<point x="586.2450228312" y="1082" type="qcurve" smooth="yes"/>
			<point x="801.2450228312" y="1082"/>
			<point x="996.3910633852" y="791"/>
			<point x="943.4644795294" y="542" type="qcurve" smooth="yes"/>
		</contour>
		<contour>
			<point x="863.9183257229" y="610" type="line"/>
			<point x="833.0976242808" y="465" type="line"/>
			<point x="302.0976242808" y="465" type="line"/>
			<point x="332.9183257229" y="610" type="line"/>
		</contour>
	</outline>
	<anchor name="top" x="575.8683259811" y="1052"/>
	<guideline x="839.0492080075" y="493" angle="102" identifier="9ss4WcbEUf"/>
</glyph>
<glyph name="ya" format="2">
	<unicode hex="044F"/>
	<advance width="1117"/>
	<outline>
		<contour>
			<point x="-69.7411768958" y="0" type="line"/>
			<point x="352.7595021024" y="454" type="line"/>
			<point x="534.146040554" y="437" type="line"/>
			<point x="134.2588231042" y="0" type="line"/>
		</contour>
		<contour>
			<point x="116.44932126" y="716" type="qcurve" smooth="yes"/>
			<point x="148.9704751955" y="869"/>
			<point x="396.8683259811" y="1052"/>
			<point x="589.8683259811" y="1052" type="qcurve" smooth="yes"/>
			<point x="1037.8683259811" y="1052" type="line"/>
			<point x="814.2588231042" y="0" type="line"/>
			<point x="628.2588231042" y="0" type="line"/>
			<point x="821.0476245389" y="907" type="line"/>
			<point x="559.0476245389" y="907" type="line" smooth="yes"/>
			<point x="435.0476245389" y="907"/>
			<point x="331.7821267704" y="854"/>
			<point x="302.44932126" y="716" type="qcurve" smooth="yes"/>
			<point x="272.2662895028" y="574"/>
			<point x="353.7012442277" y="529"/>
			<point x="478.7012442277" y="529" type="qcurve" smooth="yes"/>
			<point x="830.7012442277" y="529" type="line"/>
			<point x="799.8805427855" y="384" type="line"/>
			<point x="465.8805427855" y="384" type="line"/>
			<point x="450.4312215256" y="396" type="line"/>
			<point x="257.4312215256" y="396"/>
			<point x="85.2035066945" y="569"/>
		</contour>
	</outline>
	<anchor name="top" x="649.8683259811" y="1052"/>
</glyph>
<glyph name="ieukran" format="2">
	<unicode hex="0454"/>
	<advance width="1068"/>
	<outline>
		<contour>
			<point x="38.6626695559" y="510" type="qcurve" smooth="yes"/>
			<point x="45.4644795294" y="542" type="line" smooth="yes"/>
			<point x="96.9031674535" y="784"/>
			<point x="419.2450228312" y="1082"/>
			<point x="646.2450228312" y="1082" type="qcurve" smooth="yes"/>
			<point x="856.2450228312" y="1082"/>
			<point x="1025.9946833321" y="855"/>
			<point x="996.2367646983" y="715" type="qcurve" smooth="yes"/>
			<point x="995.1739818899" y="710" type="line"/>
			<point x="815.1739818899" y="710" type="line"/>
			<point x="844.7193439621" y="849" type="line" smooth="yes"/>
			<point x="857.4727376623" y="909"/>
			<point x="744.9364254573" y="930"/>
			<point x="613.9364254573" y="930" type="qcurve" smooth="yes"/>
			<point x="461.9364254573" y="930"/>
			<point x="298.1202489488" y="865"/>
			<point x="285.5794118103" y="806" type="qcurve" smooth="yes"/>
			<point x="166.547737275" y="246" type="line" smooth="yes"/>
			<point x="149.9683254648" y="168"/>
			<point x="290.190723628" y="122"/>
			<point x="442.190723628" y="122" type="qcurve" smooth="yes"/>
			<point x="574.190723628" y="122"/>
			<point x="702.0938910815" y="178"/>
			<point x="706.1324657532" y="197" type="qcurve" smooth="yes"/>
			<point x="736.9531671954" y="342" type="line"/>
			<point x="916.9531671954" y="342" type="line"/>
			<point x="915.890384387" y="337" type="line" smooth="yes"/>
			<point x="893.35938885" y="231"/>
			<point x="619.8821262541" y="-30"/>
			<point x="409.8821262541" y="-30" type="qcurve" smooth="yes"/>
			<point x="182.8821262541" y="-30"/>
			<point x="-12.7760183682" y="268"/>
		</contour>
		<contour>
			<point x="155.9183257229" y="610" type="line"/>
			<point x="684.9183257229" y="610" type="line"/>
			<point x="654.0976242808" y="465" type="line"/>
			<point x="125.0976242808" y="465" type="line"/>
		</contour>
	</outline>
	<guideline x="141.7398188994" y="548" angle="102" identifier="n4jm0tBg3Y"/>
</glyph>
<glyph name="nje" format="2">
	<unicode hex="045A"/>
	<advance width="1701"/>
	<outline>
		<contour>
			<point x="-6.7411768958" y="0" type="line"/>
			<point x="216.8683259811" y="1052" type="line"/>
			<point x="402.8683259811" y="1052" type="line"/>
			<point x="179.2588231042" y="0" type="line"/>
		</contour>
		<contour>
			<point x="200.851017981" y="525" type="line"/>
			<point x="231.6717194231" y="670" type="line"/>
			<point x="878.6717194231" y="670" type="line"/>
			<point x="847.851017981" y="525" type="line"/>
		</contour>
		<contour>
			<point x="646.2588231042" y="0" type="line"/>
			<point x="869.8683259811" y="1052" type="line"/>
			<point x="1055.8683259811" y="1052" type="line"/>
			<point x="863.0795245464" y="145" type="line"/>
			<point x="1105.0795245464" y="145" type="line" smooth="yes"/>
			<point x="1235.0795245464" y="145"/>
			<point x="1343.8329182466" y="205"/>
			<point x="1371.890384387" y="337" type="qcurve" smooth="yes"/>
			<point x="1399.7352939658" y="468"/>
			<point x="1315.851017981" y="525"/>
			<point x="1185.851017981" y="525" type="qcurve" smooth="yes"/>
			<point x="873.851017981" y="525" type="line"/>
			<point x="904.6717194231" y="670" type="line"/>
			<point x="1216.6717194231" y="670" type="line" smooth="yes"/>
			<point x="1414.6717194231" y="670"/>
			<point x="1590.6240948842" y="491"/>
			<point x="1557.890384387" y="337" type="qcurve" smooth="yes"/>
			<point x="1525.1566738898" y="183"/>
			<point x="1272.2588231042" y="0"/>
			<point x="1074.2588231042" y="0" type="qcurve" smooth="yes"/>
		</contour>
	</outline>
</glyph>
<glyph name="kaverticalstrokecyr" format="2">
	<unicode hex="049D"/>
	<advance width="1210"/>
	<outline>
		<contour>
			<point x="655.3570136471" y="852" type="line"/>
			<point x="516.7701354382" y="200" type="line"/>
			<point x="351.7701354382" y="200" type="line"/>
			<point x="490.3570136471" y="852" type="line"/>
		</contour>
		<contour>
			<point x="402.8683259811" y="1052" type="line"/>
			<point x="179.2588231042" y="0" type="line"/>
			<point x="-6.7411768958" y="0" type="line"/>
			<point x="216.8683259811" y="1052" type="line"/>
		</contour>
		<contour>
			<point x="854.2588231042" y="0" type="line"/>
			<point x="562.4985292675" y="481" type="line"/>
			<point x="704.2806560379" y="607" type="line"/>
			<point x="1080.2588231042" y="0" type="line"/>
		</contour>
		<contour>
			<point x="521.9183257229" y="610" type="line"/>
			<point x="603.9183257229" y="610" type="line"/>
			<point x="1052.8683259811" y="1052" type="line"/>
			<point x="1266.8683259811" y="1052" type="line"/>
			<point x="660.0976242808" y="465" type="line"/>
			<point x="491.0976242808" y="465" type="line"/>
		</contour>
	</outline>
	<guideline x="530.6331447514" y="651" angle="102" identifier="ATaXbxe4rK"/>
</glyph>
<glyph name="cheverticalstroke-cy" format="2">
	<unicode hex="04B9"/>
	<advance width="1115"/>
	<outline>
		<contour>
			<point x="657.3570136471" y="852" type="line"/>
			<point x="518.7701354382" y="200" type="line"/>
			<point x="353.7701354382" y="200" type="line"/>
			<point x="492.3570136471" y="852" type="line"/>
		</contour>
		<contour>
			<point x="320.5650452752" y="773" type="line" smooth="yes"/>
			<point x="275.7156107628" y="562"/>
			<point x="360.4644795294" y="542"/>
			<point x="493.4644795294" y="542" type="qcurve" smooth="yes"/>
			<point x="586.4644795294" y="542"/>
			<point x="734.9909501328" y="568"/>
			<point x="824.6671944895" y="590" type="qcurve"/>
			<point x="793.6339364857" y="444" type="line"/>
			<point x="704.595361814" y="425"/>
			<point x="550.4312215256" y="396"/>
			<point x="426.4312215256" y="396" type="qcurve" smooth="yes"/>
			<point x="230.4312215256" y="396"/>
			<point x="94.1792985578" y="583"/>
			<point x="134.5650452752" y="773" type="qcurve" smooth="yes"/>
			<point x="193.8683259811" y="1052" type="line"/>
			<point x="379.8683259811" y="1052" type="line"/>
		</contour>
		<contour>
			<point x="626.2588231042" y="0" type="line"/>
			<point x="849.8683259811" y="1052" type="line"/>
			<point x="1035.8683259811" y="1052" type="line"/>
			<point x="812.2588231042" y="0" type="line"/>
		</contour>
	</outline>
</glyph>
<glyph name="be.locl" format="2">
	<advance width="1162"/>
	<outline>
		<contour>
			<point x="275" y="728" type="qcurve" smooth="yes"/>
			<point x="172.547737275" y="246" type="line" smooth="yes"/>
			<point x="160.8571263832" y="191"/>
			<point x="298.190723628" y="122"/>
			<point x="452.190723628" y="122" type="qcurve" smooth="yes"/>
			<point x="605.190723628" y="122"/>
			<point x="772.8571263832" y="191"/>
			<point x="784.547737275" y="246" type="qcurve" smooth="yes"/>
			<point x="887" y="728" type="line" smooth="yes"/>
			<point x="900.3910633852" y="791"/>
			<point x="780.4341629905" y="890"/>
			<point x="615.4341629905" y="890" type="qcurve" smooth="yes"/>
			<point x="454.4341629905" y="890"/>
			<point x="300.2942308387" y="847"/>
		</contour>
		<contour>
			<point x="34.4115383225" y="490" type="qcurve" smooth="yes"/>
			<point x="41.213348296" y="522" type="line" smooth="yes"/>
			<point x="74.0459269232" y="676.4651379813"/>
			<point x="275.8894645963" y="908.6182373664"/>
			<point x="447.2261313625" y="969" type="qcurve"/>
			<point x="448.0763576092" y="973" type="line"/>
			<point x="312.8781675826" y="1005"/>
			<point x="225.9840499963" y="1109"/>
			<point x="241.2881224365" y="1181" type="qcurve" smooth="yes"/>
			<point x="263.1814482885" y="1284"/>
			<point x="474.9007922506" y="1405"/>
			<point x="699.9007922506" y="1405" type="qcurve" smooth="yes"/>
			<point x="796.9007922506" y="1405" type="line" smooth="yes"/>
			<point x="902.9007922506" y="1405"/>
			<point x="1000.7268103607" y="1423"/>
			<point x="1016.7411768958" y="1456" type="qcurve"/>
			<point x="1179.7411768958" y="1456" type="line"/>
			<point x="1143.5097288654" y="1342"/>
			<point x="962.9787333284" y="1236"/>
			<point x="772.9787333284" y="1236" type="qcurve" smooth="yes"/>
			<point x="675.9787333284" y="1236" type="line" smooth="yes"/>
			<point x="535.9787333284" y="1236"/>
			<point x="423.3894799166" y="1205"/>
			<point x="414.8872174498" y="1165" type="qcurve" smooth="yes"/>
			<point x="404.0468328046" y="1114"/>
			<point x="588.9938915978" y="1062"/>
			<point x="724.8925341177" y="1038" type="qcurve" smooth="yes"/>
			<point x="931.2404978976" y="1002"/>
			<point x="1076.1497737533" y="724"/>
			<point x="1033.213348296" y="522" type="qcurve" smooth="yes"/>
			<point x="1026.4115383225" y="490" type="line" smooth="yes"/>
			<point x="977.7360857001" y="261"/>
			<point x="645.8821262541" y="-30"/>
			<point x="419.8821262541" y="-30" type="qcurve" smooth="yes"/>
			<point x="193.8821262541" y="-30"/>
			<point x="-14.2639142999" y="261"/>
		</contour>
	</outline>
</glyph>
<glyph name="hard.bgr" format="2">
	<advance width="1260"/>
	<outline>
		<contour>
			<point x="239.8661762504" y="351" type="qcurve"/>
			<point x="358.0476245389" y="907" type="line"/>
			<point x="68.0476245389" y="907" type="line"/>
			<point x="98.8683259811" y="1052" type="line"/>
			<point x="574.8683259811" y="1052" type="line"/>
			<point x="425.8661762504" y="351" type="line"/>
			<point x="383.5674204781" y="152"/>
			<point x="483.4032801896" y="123"/>
			<point x="629.4032801896" y="123" type="qcurve" smooth="yes"/>
			<point x="776.4032801896" y="123"/>
			<point x="891.5674204781" y="152"/>
			<point x="933.8661762504" y="351" type="qcurve" smooth="yes"/>
			<point x="975.5272623377" y="547"/>
			<point x="876.0537329411" y="573"/>
			<point x="745.0537329411" y="573" type="qcurve" smooth="yes"/>
			<point x="383.0537329411" y="573" type="line"/>
			<point x="413.8744343833" y="718" type="line"/>
			<point x="775.8744343833" y="718" type="line" smooth="yes"/>
			<point x="978.8744343833" y="718"/>
			<point x="1156.0007917343" y="521"/>
			<point x="1119.8661762504" y="351" type="qcurve" smooth="yes"/>
			<point x="1082.8813345198" y="177"/>
			<point x="809.8821262541" y="-30"/>
			<point x="596.8821262541" y="-30" type="qcurve" smooth="yes"/>
			<point x="385.8821262541" y="-30"/>
			<point x="202.8813345198" y="177"/>
		</contour>
	</outline>
</glyph>
<glyph name="soft.bgr" format="2">
	<advance width="1088"/>
	<outline>
		<contour>
			<point x="67.8661762504" y="351" type="qcurve" smooth="yes"/>
			<point x="216.8683259811" y="1052" type="line"/>
			<point x="402.8683259811" y="1052" type="line"/>
			<point x="253.8661762504" y="351" type="line" smooth="yes"/>
			<point x="211.5674204781" y="152"/>
			<point x="311.4032801896" y="123"/>
			<point x="457.4032801896" y="123" type="qcurve" smooth="yes"/>
			<point x="604.4032801896" y="123"/>
			<point x="719.5674204781" y="152"/>
			<point x="761.8661762504" y="351" type="qcurve" smooth="yes"/>
			<point x="803.5272623377" y="547"/>
			<point x="710.0537329411" y="573"/>
			<point x="573.0537329411" y="573" type="qcurve" smooth="yes"/>
			<point x="211.0537329411" y="573" type="line"/>
			<point x="241.8744343833" y="718" type="line"/>
			<point x="603.8744343833" y="718" type="line" smooth="yes"/>
			<point x="806.8744343833" y="718"/>
			<point x="984.0007917343" y="521"/>
			<point x="947.8661762504" y="351" type="qcurve" smooth="yes"/>
			<point x="910.8813345198" y="177"/>
			<point x="637.8821262541" y="-30"/>
			<point x="424.8821262541" y="-30" type="qcurve" smooth="yes"/>
			<point x="213.8821262541" y="-30"/>
			<point x="30.8813345198" y="177"/>
		</contour>
	</outline>
</glyph>
<glyph name="ve.bgr" format="2">
	<advance width="1074"/>
	<outline>
		<contour>
			<point x="55.2814477722" y="400" type="qcurve" smooth="yes"/>
			<point x="197.6943440911" y="1070" type="line" smooth="yes"/>
			<point x="237.6549776851" y="1258"/>
			<point x="509.9923081292" y="1476"/>
			<point x="701.9923081292" y="1476" type="qcurve" smooth="yes"/>
			<point x="888.9923081292" y="1476"/>
			<point x="1060.9303170551" y="1264"/>
			<point x="1021.8199097078" y="1080" type="qcurve" smooth="yes"/>
			<point x="1003.5400454042" y="994"/>
			<point x="861.4924208653" y="815"/>
			<point x="737.0771493435" y="766" type="qcurve"/>
			<point x="736.2269230968" y="762" type="line"/>
			<point x="849.7004524934" y="736"/>
			<point x="964.9909501328" y="568"/>
			<point x="933.7451355673" y="421" type="qcurve" smooth="yes"/>
			<point x="886.9826919999" y="201"/>
			<point x="600.8821262541" y="-30"/>
			<point x="400.8821262541" y="-30" type="qcurve" smooth="yes"/>
			<point x="187.8821262541" y="-30"/>
			<point x="12.9826919999" y="201"/>
		</contour>
		<contour>
			<point x="241.2814477722" y="400" type="line" smooth="yes"/>
			<point x="189.6302032864" y="157"/>
			<point x="299.190723628" y="122"/>
			<point x="433.190723628" y="122" type="qcurve" smooth="yes"/>
			<point x="570.190723628" y="122"/>
			<point x="691.6302032864" y="157"/>
			<point x="747.5325790056" y="420" type="qcurve" smooth="yes"/>
			<point x="796.8457013131" y="652"/>
			<point x="654.4349547248" y="683"/>
			<point x="515.4977375332" y="688" type="qcurve" smooth="yes"/>
			<point x="222.4977375332" y="688" type="line"/>
			<point x="252.6807692903" y="830" type="line"/>
			<point x="536.6807692903" y="830" type="line" smooth="yes"/>
			<point x="651.6807692903" y="830"/>
			<point x="797.6467195522" y="891"/>
			<point x="835.6943440911" y="1070" type="qcurve" smooth="yes"/>
			<point x="884.1572401519" y="1298"/>
			<point x="790.6837107553" y="1324"/>
			<point x="669.6837107553" y="1324" type="qcurve" smooth="yes"/>
			<point x="547.6837107553" y="1324"/>
			<point x="431.0944573436" y="1293"/>
			<point x="383.6943440911" y="1070" type="qcurve" smooth="yes"/>
		</contour>
	</outline>
</glyph>
<glyph name="ze.bgr" format="2">
	<advance width="992"/>
	<outline>
		<contour>
			<point x="-133.9923081292" y="-20" type="qcurve" smooth="yes"/>
			<point x="-131.8667425125" y="-10" type="line"/>
			<point x="48.1332574875" y="-10" type="line"/>
			<point x="46.0076918708" y="-20" type="line" smooth="yes"/>
			<point x="-7.3440051084" y="-271"/>
			<point x="127.5932120833" y="-276"/>
			<point x="257.5932120833" y="-276" type="qcurve" smooth="yes"/>
			<point x="388.5932120833" y="-276"/>
			<point x="523.0183252066" y="-274"/>
			<point x="581.2588231042" y="0" type="qcurve" smooth="yes"/>
			<point x="621.4320132599" y="189"/>
			<point x="494.7776281665" y="282"/>
			<point x="357.1997734952" y="282" type="qcurve" smooth="yes"/>
			<point x="249.1997734952" y="282" type="line"/>
			<point x="281.9334839924" y="436" type="line"/>
			<point x="380.9334839924" y="436" type="line" smooth="yes"/>
			<point x="493.6149356053" y="436"/>
			<point x="642.4259048576" y="523"/>
			<point x="677.9228506565" y="690" type="qcurve" smooth="yes"/>
			<point x="722.1346154839" y="898"/>
			<point x="623.3615385807" y="932"/>
			<point x="514.3615385807" y="932" type="qcurve" smooth="yes"/>
			<point x="400.3615385807" y="932"/>
			<point x="283.0476245389" y="907"/>
			<point x="239.0484162732" y="700" type="qcurve" smooth="yes"/>
			<point x="236.9228506565" y="690" type="line"/>
			<point x="56.9228506565" y="690" type="line"/>
			<point x="59.0484162732" y="700" type="line" smooth="yes"/>
			<point x="93.6951358255" y="863"/>
			<point x="365.7748607284" y="1086"/>
			<point x="547.0952490779" y="1086" type="qcurve" smooth="yes"/>
			<point x="721.9046550185" y="1086"/>
			<point x="902.3085973738" y="880"/>
			<point x="864.0484162732" y="700" type="qcurve" smooth="yes"/>
			<point x="842.7927601062" y="600"/>
			<point x="698.4697961973" y="415"/>
			<point x="575.0545246755" y="366" type="qcurve"/>
			<point x="574.2042984288" y="362" type="line"/>
			<point x="687.6778278254" y="336"/>
			<point x="801.0553164098" y="159"/>
			<point x="767.4713796659" y="1" type="qcurve" smooth="yes"/>
			<point x="724.7475107702" y="-200"/>
			<point x="420.6884489545" y="-430"/>
			<point x="224.8595015861" y="-430" type="qcurve" smooth="yes"/>
			<point x="17.6471122056" y="-430"/>
			<point x="-172.2524892298" y="-200"/>
		</contour>
	</outline>
</glyph>
